# xmcd
#
# Track frame offsets: 
#        150
#        24287
#        47571
#        69847
#        94354
#        107457
#        132552
#        161760
#
# Disc length: 2472 seconds
#
# Revision: 0
# Processed by: cddbd v1.5.2PL0 Copyright (c) Steve Scherf et al.
# Submitted via: ExactAudioCopy v0.95b4
#
DISCID=6109a608
DTITLE=Sun-Ray Slim - Blue Diamonds
DYEAR=2006
DGENRE=Blues
TTITLE0=Snappin' The Strings (2001)
TTITLE1=Minor Blues in B (2002)
TTITLE2=P90 Flyer (2003)
TTITLE3=Gospel Blues (2003)
TTITLE4=Shuckin' Around in A (2000)
TTITLE5=Stormy Monday (2002)
TTITLE6=Slow Blues in A minor (2001)
TTITLE7=Hometown Blues (2002)
EXTD=
EXTT0=
EXTT1=
EXTT2=
EXTT3=
EXTT4=
EXTT5=
EXTT6=
EXTT7=
PLAYORDER=
